# xmcd
#
# Track frame offsets:
#	150
#	16282
#	31596
#	47233
#	64880
#	81464
#	102031
#	114213
#	129336
#	145716
#	160511
#	172849
#	189847
#	206196
#	223262
#	238615
#	247829
#	266872
#
# Disc length: 3776 seconds
#
# Revision: 1
# Processed by: cddbd v1.5.1PL0 Copyright (c) Steve Scherf et al.
# Submitted via: audiograbber 1.83.01
#
DISCID=ed0ebe12
DTITLE=Various Artist - Hott Country 107
DYEAR=2005
DGENRE=Country
TTITLE0=Dean Tuftin - Wide Open Highway
TTITLE1=Gord Bamford - My Heart's A Genius
TTITLE2=Toby Keith Feat Krystal - Mockingbird
TTITLE3=Aaron Lines - Waitin' On The Wonderful
TTITLE4=Carolyn Dawn Johnson - We Talked
TTITLE5=Keith Urban - The Hard Way
TTITLE6=Brad Johner - She Looks A Lot Like You
TTITLE7=Trace Adkins - Songs About Me
TTITLE8=Tift Merritt - Good Hearted Man
TTITLE9=Wailin' Jennys - Beautiful Dawn
TTITLE10=Malibu Storm - Long Way To Fall
TTITLE11=Brad Cotter - Patient Man
TTITLE12=Brad Johner - She Moved
TTITLE13=Nathan - Sunset Chaser
TTITLE14=Sarah Harmer - Pendulums
TTITLE15=Treat Williams - Love Song
TTITLE16=Restless Heart - I'll Still Be Loving You
TTITLE17=Clay Walker - This Woman And This Man ( Edit )
EXTD=
EXTT0=
EXTT1=
EXTT2=
EXTT3=
EXTT4=
EXTT5=
EXTT6=
EXTT7=
EXTT8=
EXTT9=
EXTT10=
EXTT11=
EXTT12=
EXTT13=
EXTT14=
EXTT15=
EXTT16=
EXTT17=
PLAYORDER=
